<?xml version="1.0" encoding="UTF-8"?>
<svg width="24" height="24" viewBox="0 0 24 24" xmlns="http://www.w3.org/2000/svg" aria-hidden="true">
  <path fill="none" d="M0 0h24v24H0z"/>
  <path fill="#09244B" d="M3 5c0-1.10457.89543-2 2-2h14c1.1046 0 2 .89543 2 2v14c0 1.1046-.8954 2-2 2H5c-1.10457 0-2-.8954-2-2V5zm6.05037 10.5357c-.39052.3905-1.02369.3905-1.41421 0-.39053-.3906-.39053-1.0237 0-1.4143l2.12132-2.1213-2.12132-2.1213c-.39053-.39053-.39053-1.0237 0-1.41422.39052-.39052 1.02369-.39052 1.41421 0l2.82843 2.82842c.3905.3905.3905 1.0237 0 1.4142l-2.82843 2.8285zM14.0001 14.0001c-.5523 0-1 .4477-1 1 0 .5523.4477 1 1 1h2c.5523 0 1-.4477 1-1 0-.5523-.4477-1-1-1h-2z"/>
</svg>
