<?xml version="1.0" encoding="iso-8859-1"?>
<!-- Uploaded to: SVG Repo, www.svgrepo.com, Generator: SVG Repo Mixer Tools -->
<svg fill="#000000" height="800px" width="800px" version="1.1" id="Layer_1" xmlns="http://www.w3.org/2000/svg" xmlns:xlink="http://www.w3.org/1999/xlink" 
	 viewBox="0 0 512 512" xml:space="preserve">
<g>
	<g>
		<path d="M256,189.079c-36.871,0.067-66.853,30.049-66.92,66.923c0.068,36.871,30.049,66.853,66.92,66.92
			c36.871-0.067,66.853-30.049,66.92-66.92C322.853,219.128,292.871,189.147,256,189.079z M256,289.461
			c-18.48,0-33.46-14.98-33.46-33.46c0-18.48,14.98-33.46,33.46-33.46s33.46,14.98,33.46,33.46
			C289.46,274.481,274.48,289.461,256,289.461z"/>
	</g>
</g>
<g>
	<g>
		<path d="M509.082,246.729C451.986,169.028,353.822,89.561,256,89.231c-98.014,0.33-196.379,80.332-253.082,157.498
			c-3.89,5.576-3.89,12.965,0,18.541C60.015,342.972,158.179,422.44,256,422.769c98.014-0.329,196.38-80.332,253.082-157.498
			C512.973,259.693,512.973,252.305,509.082,246.729z M256,356.379c-55.407-0.027-100.351-44.974-100.38-100.378
			c0.029-55.405,44.975-100.354,100.38-100.38c55.407,0.027,100.351,44.974,100.38,100.38
			C356.351,311.406,311.407,356.353,256,356.379z"/>
	</g>
</g>
</svg>